<svg width="800" height="600" xmlns="http://www.w3.org/2000/svg" version="1.1"><g><g class="x axis" transform="translate(0,580)" style="stroke-width: 1px; font-size: 10px; font-family: Arial, Helvetica;"><g class="tick" transform="translate(27.586206896551722,0)" style="opacity: 1;"><line y2="-580" x2="0" style="shape-rendering: crispedges; fill: none; stroke: rgb(204, 204, 204);"></line><text y="3" x="0" dy=".71em" style="text-anchor: middle;">1,985</text></g><g class="tick" transform="translate(165.51724137931035,0)" style="opacity: 1;"><line y2="-580" x2="0" style="shape-rendering: crispedges; fill: none; stroke: rgb(204, 204, 204);"></line><text y="3" x="0" dy=".71em" style="text-anchor: middle;">1,990</text></g><g class="tick" transform="translate(303.44827586206895,0)" style="opacity: 1;"><line y2="-580" x2="0" style="shape-rendering: crispedges; fill: none; stroke: rgb(204, 204, 204);"></line><text y="3" x="0" dy=".71em" style="text-anchor: middle;">1,995</text></g><g class="tick" transform="translate(441.37931034482756,0)" style="opacity: 1;"><line y2="-580" x2="0" style="shape-rendering: crispedges; fill: none; stroke: rgb(204, 204, 204);"></line><text y="3" x="0" dy=".71em" style="text-anchor: middle;">2,000</text></g><g class="tick" transform="translate(579.3103448275862,0)" style="opacity: 1;"><line y2="-580" x2="0" style="shape-rendering: crispedges; fill: none; stroke: rgb(204, 204, 204);"></line><text y="3" x="0" dy=".71em" style="text-anchor: middle;">2,005</text></g><g class="tick" transform="translate(717.2413793103449,0)" style="opacity: 1;"><line y2="-580" x2="0" style="shape-rendering: crispedges; fill: none; stroke: rgb(204, 204, 204);"></line><text y="3" x="0" dy=".71em" style="text-anchor: middle;">2,010</text></g><path class="domain" d="M0,-580V0H800V-580" style="shape-rendering: crispedges; fill: none; stroke: rgb(204, 204, 204);"></path></g><path class="layer" d="M0,487.59803921554413L27.586206896551722,423.62745098025L55.172413793103445,419.4463667821324L82.75862068965517,471.25L110.34482758620689,501.81372549033824L137.93103448275863,415.5042016807941L165.51724137931035,492.8516624040735L193.10344827586206,462.2128851542647L220.68965517241378,468.3650519032647L248.27586206896552,352.0588235292794L275.86206896551727,466.82126696816175L303.44827586206895,502.3604826547206L331.0344827586207,376.7156862743676L358.62068965517244,443.97058823545586L386.2068965517241,468.3917396744118L413.7931034482759,446.07327141395587L441.37931034482756,461.78534571729415L468.96551724137925,434.44373401538235L496.55172413793105,461.9004524887206L524.1379310344828,495.89052287591176L551.7241379310345,466.6806722690294L579.3103448275862,367.8308823529412L606.8965517241379,443.52941176470586L634.4827586206897,415.0980392155441L662.0689655172414,428.3660130717059L689.655172413793,475.4846727424265L717.2413793103449,461.1974789917794L744.8275862068965,421.59663865527943L772.4137931034483,446.8579626973676L800,535.5759803920147L800,580L772.4137931034483,580L744.8275862068965,580L717.2413793103449,580L689.655172413793,580L662.0689655172414,580L634.4827586206897,580L606.8965517241379,580L579.3103448275862,580L551.7241379310345,580L524.1379310344828,580L496.55172413793105,580L468.96551724137925,580L441.37931034482756,580L413.7931034482759,580L386.2068965517241,580L358.62068965517244,580L331.0344827586207,580L303.44827586206895,580L275.86206896551727,580L248.27586206896552,580L220.68965517241378,580L193.10344827586206,580L165.51724137931035,580L137.93103448275863,580L110.34482758620689,580L82.75862068965517,580L55.172413793103445,580L27.586206896551722,580L0,580Z" title="Beer" style="fill: rgb(191, 105, 105);"></path><path class="layer" d="M0,383.34967320266173L27.586206896551722,288.57843137226473L55.172413793103445,341.6782006923677L82.75862068965517,339.0441176470588L110.34482758620689,385.7189542486029L137.93103448275863,244.91596638667647L165.51724137931035,346.3682864448088L193.10344827586206,311.9327731094265L220.68965517241378,316.5916955019559L248.27586206896552,231.4705882350147L275.86206896551727,355.28280542989705L303.44827586206895,348.17496229292647L331.0344827586207,244.50980392142645L358.62068965517244,324.8529411764559L386.2068965517241,374.02377972433817L413.7931034482759,324.86584107330884L441.37931034482756,351.0526315790147L468.96551724137925,338.95140664976464L496.55172413793105,339.42684766238233L524.1379310344828,333.5947712417353L551.7241379310345,393.5714285713676L579.3103448275862,263.3455882352941L606.8965517241379,277.20588235294116L634.4827586206897,120.83333333319115L662.0689655172414,281.4705882352941L689.655172413793,369.76801988395584L717.2413793103449,348.4873949580441L744.8275862068965,299.7478991596029L772.4137931034483,288.75179340041177L800,396.9730392155441L800,535.5759803920147L772.4137931034483,446.8579626973676L744.8275862068965,421.59663865527943L717.2413793103449,461.1974789917794L689.655172413793,475.4846727424265L662.0689655172414,428.3660130717059L634.4827586206897,415.0980392155441L606.8965517241379,443.52941176470586L579.3103448275862,367.8308823529412L551.7241379310345,466.6806722690294L524.1379310344828,495.89052287591176L496.55172413793105,461.9004524887206L468.96551724137925,434.44373401538235L441.37931034482756,461.78534571729415L413.7931034482759,446.07327141395587L386.2068965517241,468.3917396744118L358.62068965517244,443.97058823545586L331.0344827586207,376.7156862743676L303.44827586206895,502.3604826547206L275.86206896551727,466.82126696816175L248.27586206896552,352.0588235292794L220.68965517241378,468.3650519032647L193.10344827586206,462.2128851542647L165.51724137931035,492.8516624040735L137.93103448275863,415.5042016807941L110.34482758620689,501.81372549033824L82.75862068965517,471.25L55.172413793103445,419.4463667821324L27.586206896551722,423.62745098025L0,487.59803921554413Z" title="Liquor" style="fill: rgb(105, 191, 105);"></path><path class="layer" d="M0,302.7941176470588L27.586206896551722,203.28431372520583L55.172413793103445,263.910034602603L82.75862068965517,147.13235294117646L110.34482758620689,271.99346405238236L137.93103448275863,155.56022408967647L165.51724137931035,198.03069053667645L193.10344827586206,208.36134453805875L220.68965517241378,231.2975778548971L248.27586206896552,100.58823529389707L275.86206896551727,245.3846153847794L303.44827586206895,226.7948717953529L331.0344827586207,117.99019607814705L358.62068965517244,218.23529411763235L386.2068965517241,264.23028785935287L413.7931034482759,187.19814241483823L441.37931034482756,228.34881320939706L468.96551724137925,241.6048593352794L496.55172413793105,268.3484162896911L524.1379310344828,249.48529411764707L551.7241379310345,232.73109243685292L579.3103448275862,124.74264705882348L606.8965517241379,228.16176470588232L634.4827586206897,0L662.0689655172414,207.54901960798531L689.655172413793,234.01822700902943L717.2413793103449,212.42296918757347L744.8275862068965,132.54435107391174L772.4137931034483,186.8149210904706L800,293.90931372520583L800,396.9730392155441L772.4137931034483,288.75179340041177L744.8275862068965,299.7478991596029L717.2413793103449,348.4873949580441L689.655172413793,369.76801988395584L662.0689655172414,281.4705882352941L634.4827586206897,120.83333333319115L606.8965517241379,277.20588235294116L579.3103448275862,263.3455882352941L551.7241379310345,393.5714285713676L524.1379310344828,333.5947712417353L496.55172413793105,339.42684766238233L468.96551724137925,338.95140664976464L441.37931034482756,351.0526315790147L413.7931034482759,324.86584107330884L386.2068965517241,374.02377972433817L358.62068965517244,324.8529411764559L331.0344827586207,244.50980392142645L303.44827586206895,348.17496229292647L275.86206896551727,355.28280542989705L248.27586206896552,231.4705882350147L220.68965517241378,316.5916955019559L193.10344827586206,311.9327731094265L165.51724137931035,346.3682864448088L137.93103448275863,244.91596638667647L110.34482758620689,385.7189542486029L82.75862068965517,339.0441176470588L55.172413793103445,341.6782006923677L27.586206896551722,288.57843137226473L0,383.34967320266173Z" title="Wine" style="fill: rgb(105, 105, 191);"></path><text x="248.27586206896552" y="466.0294117646397" style="font-size: 11px; font-family: Arial, Helvetica;">Beer</text><text x="634.4827586206897" y="267.9656862743676" style="font-size: 11px; font-family: Arial, Helvetica;">Liquor</text><text x="82.75862068965517" y="243.08823529411762" style="font-size: 11px; font-family: Arial, Helvetica;">Wine</text></g></svg>