<svg width="800" height="600" xmlns="http://www.w3.org/2000/svg" version="1.1"><g><g class="x axis" transform="translate(0,580)" style="stroke-width: 1px; font-size: 10px; font-family: Arial, Helvetica;"><g class="tick" transform="translate(27.586206896551722,0)" style="opacity: 1;"><line y2="-580" x2="0" style="shape-rendering: crispedges; fill: none; stroke: rgb(204, 204, 204);"></line><text y="3" x="0" dy=".71em" style="text-anchor: middle;">1,985</text></g><g class="tick" transform="translate(165.51724137931035,0)" style="opacity: 1;"><line y2="-580" x2="0" style="shape-rendering: crispedges; fill: none; stroke: rgb(204, 204, 204);"></line><text y="3" x="0" dy=".71em" style="text-anchor: middle;">1,990</text></g><g class="tick" transform="translate(303.44827586206895,0)" style="opacity: 1;"><line y2="-580" x2="0" style="shape-rendering: crispedges; fill: none; stroke: rgb(204, 204, 204);"></line><text y="3" x="0" dy=".71em" style="text-anchor: middle;">1,995</text></g><g class="tick" transform="translate(441.37931034482756,0)" style="opacity: 1;"><line y2="-580" x2="0" style="shape-rendering: crispedges; fill: none; stroke: rgb(204, 204, 204);"></line><text y="3" x="0" dy=".71em" style="text-anchor: middle;">2,000</text></g><g class="tick" transform="translate(579.3103448275862,0)" style="opacity: 1;"><line y2="-580" x2="0" style="shape-rendering: crispedges; fill: none; stroke: rgb(204, 204, 204);"></line><text y="3" x="0" dy=".71em" style="text-anchor: middle;">2,005</text></g><g class="tick" transform="translate(717.2413793103449,0)" style="opacity: 1;"><line y2="-580" x2="0" style="shape-rendering: crispedges; fill: none; stroke: rgb(204, 204, 204);"></line><text y="3" x="0" dy=".71em" style="text-anchor: middle;">2,010</text></g><path class="domain" d="M0,-580V0H800V-580" style="shape-rendering: crispedges; fill: none; stroke: rgb(204, 204, 204);"></path></g><path class="layer" d="M0,446.1845730026656L27.586206896551722,398.25068870520425L55.172413793103445,441.4851725814552L82.75862068965517,383.17148760305713L110.34482758620689,425.2134986224139L137.93103448275863,376.28099173587896L165.51724137931035,397.90334171749726L193.10344827586206,397.6800472245011L220.68965517241378,394.4324258620383L248.27586206896552,353.14049586698616L275.86206896551727,404.39605848675956L303.44827586206895,397.482517481319L331.0344827586207,357.70661156936796L358.62068965517244,405.5165289254738L386.2068965517241,428.166871812864L413.7931034482759,386.05698129615996L441.37931034482756,405.60896041744087L468.96551724137925,419.00467121809413L496.55172413793105,434.81563890641985L524.1379310344828,414.22865013757155L551.7241379310345,413.6009445096968L579.3103448275862,353.9617768592186L606.8965517241379,409.23553718986693L634.4827586206897,279.21487603327705L662.0689655172414,403.44352617061577L689.655172413793,411.64067046885754L717.2413793103449,392.5442739071599L744.8275862068965,370.8598976781862L772.4137931034483,376.57327151815207L800,443.68801652863357L800,580L772.4137931034483,580L744.8275862068965,580L717.2413793103449,580L689.655172413793,580L662.0689655172414,580L634.4827586206897,580L606.8965517241379,580L579.3103448275862,580L551.7241379310345,580L524.1379310344828,580L496.55172413793105,580L468.96551724137925,580L441.37931034482756,580L413.7931034482759,580L386.2068965517241,580L358.62068965517244,580L331.0344827586207,580L303.44827586206895,580L275.86206896551727,580L248.27586206896552,580L220.68965517241378,580L193.10344827586206,580L165.51724137931035,580L137.93103448275863,580L110.34482758620689,580L82.75862068965517,580L55.172413793103445,580L27.586206896551722,580L0,580Z" title="alcohol" style="fill: rgb(191, 105, 105);"></path><path class="layer" d="M0,360.30303030279265L27.586206896551722,340.33057851233355L55.172413793103445,384.3874574623727L82.75862068965517,331.0433884294375L110.34482758620689,308.37465564705974L137.93103448275863,291.5407319954351L165.51724137931035,308.0273086595324L193.10344827586206,317.21959858214115L220.68965517241378,291.3393291192056L248.27586206896552,270.70247933798737L275.86206896551727,302.0756516207274L303.44827586206895,312.2155117596555L331.0344827586207,304.9793388420885L358.62068965517244,326.1776859501359L386.2068965517241,345.9398628450534L413.7931034482759,300.9112657676185L441.37931034482756,350.42192257476785L468.96551724137925,349.44843693847525L496.55172413793105,383.65543547349375L524.1379310344828,366.7940771347369L551.7241379310345,339.6458087362088L579.3103448275862,268.1301652888622L606.8965517241379,358.9049586774066L634.4827586206897,233.67768595063484L662.0689655172414,332.34159779597013L689.655172413793,353.66429984829665L717.2413793103449,305.2361275078657L744.8275862068965,314.65171192454903L772.4137931034483,306.42612376559856L800,403.992768594759L800,443.68801652863357L772.4137931034483,376.57327151815207L744.8275862068965,370.8598976781862L717.2413793103449,392.5442739071599L689.655172413793,411.64067046885754L662.0689655172414,403.44352617061577L634.4827586206897,279.21487603327705L606.8965517241379,409.23553718986693L579.3103448275862,353.9617768592186L551.7241379310345,413.6009445096968L524.1379310344828,414.22865013757155L496.55172413793105,434.81563890641985L468.96551724137925,419.00467121809413L441.37931034482756,405.60896041744087L413.7931034482759,386.05698129615996L386.2068965517241,428.166871812864L358.62068965517244,405.5165289254738L331.0344827586207,357.70661156936796L303.44827586206895,397.482517481319L275.86206896551727,404.39605848675956L248.27586206896552,353.14049586698616L220.68965517241378,394.4324258620383L193.10344827586206,397.6800472245011L165.51724137931035,397.90334171749726L137.93103448275863,376.28099173587896L110.34482758620689,425.2134986224139L82.75862068965517,383.17148760305713L55.172413793103445,441.4851725814552L27.586206896551722,398.25068870520425L0,446.1845730026656Z" title="tobacco" style="fill: rgb(191, 156, 105);"></path><path class="layer" d="M0,343.3264462807227L27.586206896551722,329.3457300274732L55.172413793103445,361.12542537676063L82.75862068965517,313.0681818178446L110.34482758620689,275.4201101923528L137.93103448275863,271.8536009446086L165.51724137931035,272.8584261585975L193.10344827586206,298.38842975093144L220.68965517241378,276.00753524460424L248.27586206896552,252.72727272639446L275.86206896551727,273.0387794020832L303.44827586206895,290.5530832789855L331.0344827586207,284.6074380156764L358.62068965517244,301.0743801651228L386.2068965517241,316.10866889399097L413.7931034482759,265.9069160503531L441.37931034482756,312.5793823399204L468.96551724137925,333.42705713249177L496.55172413793105,364.29752066106425L524.1379310344828,352.8133608812717L551.7241379310345,318.5891381340313L579.3103448275862,249.25619834668953L606.8965517241379,316.66322314016315L634.4827586206897,177.3553719010368L662.0689655172414,315.9641873276319L689.655172413793,329.10662320989786L717.2413793103449,279.1292798099132L744.8275862068965,280.9838646204011L772.4137931034483,288.45091715400565L800,345.57334710708193L800,403.992768594759L772.4137931034483,306.42612376559856L744.8275862068965,314.65171192454903L717.2413793103449,305.2361275078657L689.655172413793,353.66429984829665L662.0689655172414,332.34159779597013L634.4827586206897,233.67768595063484L606.8965517241379,358.9049586774066L579.3103448275862,268.1301652888622L551.7241379310345,339.6458087362088L524.1379310344828,366.7940771347369L496.55172413793105,383.65543547349375L468.96551724137925,349.44843693847525L441.37931034482756,350.42192257476785L413.7931034482759,300.9112657676185L386.2068965517241,345.9398628450534L358.62068965517244,326.1776859501359L331.0344827586207,304.9793388420885L303.44827586206895,312.2155117596555L275.86206896551727,302.0756516207274L248.27586206896552,270.70247933798737L220.68965517241378,291.3393291192056L193.10344827586206,317.21959858214115L165.51724137931035,308.0273086595324L137.93103448275863,291.5407319954351L110.34482758620689,308.37465564705974L82.75862068965517,331.0433884294375L55.172413793103445,384.3874574623727L27.586206896551722,340.33057851233355L0,360.30303030279265Z" title="pharmaceutical" style="fill: rgb(174, 191, 105);"></path><path class="layer" d="M0,333.34022038538524L27.586206896551722,316.363636363531L55.172413793103445,350.55177442875845L82.75862068965517,307.6756198343667L110.34482758620689,270.4269972446842L137.93103448275863,261.5820543094229L165.51724137931035,249.4125044912476L193.10344827586206,271.8536009433504L220.68965517241378,243.22921730572193L248.27586206896552,235.37190082553366L275.86206896551727,223.95263827041168L303.44827586206895,187.31087094572905L331.0344827586207,257.64462809828694L358.62068965517244,289.91735537172775L386.2068965517241,242.29558642517043L413.7931034482759,245.7242279251252L441.37931034482756,260.2305350150092L468.96551724137925,269.34153790862985L496.55172413793105,352.7749523203111L524.1379310344828,313.3677685946206L551.7241379310345,274.93506493429436L579.3103448275862,226.78719008219838L606.8965517241379,266.3326446277029L634.4827586206897,107.25206611582428L662.0689655172414,304.77961432486694L689.655172413793,311.6377604464917L717.2413793103449,248.74262101405668L744.8275862068965,259.2994883905287L772.4137931034483,270.4757105424127L800,318.6105371896925L800,345.57334710708193L772.4137931034483,288.45091715400565L744.8275862068965,280.9838646204011L717.2413793103449,279.1292798099132L689.655172413793,329.10662320989786L662.0689655172414,315.9641873276319L634.4827586206897,177.3553719010368L606.8965517241379,316.66322314016315L579.3103448275862,249.25619834668953L551.7241379310345,318.5891381340313L524.1379310344828,352.8133608812717L496.55172413793105,364.29752066106425L468.96551724137925,333.42705713249177L441.37931034482756,312.5793823399204L413.7931034482759,265.9069160503531L386.2068965517241,316.10866889399097L358.62068965517244,301.0743801651228L331.0344827586207,284.6074380156764L303.44827586206895,290.5530832789855L275.86206896551727,273.0387794020832L248.27586206896552,252.72727272639446L220.68965517241378,276.00753524460424L193.10344827586206,298.38842975093144L165.51724137931035,272.8584261585975L137.93103448275863,271.8536009446086L110.34482758620689,275.4201101923528L82.75862068965517,313.0681818178446L55.172413793103445,361.12542537676063L27.586206896551722,329.3457300274732L0,343.3264462807227Z" title="gambling" style="fill: rgb(122, 191, 105);"></path><path class="layer" d="M0,329.3457300272575L27.586206896551722,312.36914600540325L55.172413793103445,343.15021876516766L82.75862068965517,306.776859503787L110.34482758620689,269.4283746551504L137.93103448275863,254.7343565526325L165.51724137931035,229.09270571290176L193.10344827586206,266.71782762575754L220.68965517241378,221.02455031487779L248.27586206896552,224.83471074287075L275.86206896551727,221.1872218686309L303.44827586206895,173.4837889368073L331.0344827586207,257.64462809828694L358.62068965517244,286.5082644626288L386.2068965517241,238.8535255846549L413.7931034482759,242.25532840359597L441.37931034482756,252.97738146997733L468.96551724137925,259.18163851947486L496.55172413793105,348.6268277176399L524.1379310344828,313.3677685946206L551.7241379310345,273.39433293901465L579.3103448275862,220.04648760285102L606.8965517241379,258.2438016524861L634.4827586206897,98.8636363637595L662.0689655172414,297.98898071603895L689.655172413793,310.11872890185043L717.2413793103449,245.31877213566145L744.8275862068965,246.17473435666227L772.4137931034483,264.3378351140665L800,312.6188016525008L800,318.6105371896925L772.4137931034483,270.4757105424127L744.8275862068965,259.2994883905287L717.2413793103449,248.74262101405668L689.655172413793,311.6377604464917L662.0689655172414,304.77961432486694L634.4827586206897,107.25206611582428L606.8965517241379,266.3326446277029L579.3103448275862,226.78719008219838L551.7241379310345,274.93506493429436L524.1379310344828,313.3677685946206L496.55172413793105,352.7749523203111L468.96551724137925,269.34153790862985L441.37931034482756,260.2305350150092L413.7931034482759,245.7242279251252L386.2068965517241,242.29558642517043L358.62068965517244,289.91735537172775L331.0344827586207,257.64462809828694L303.44827586206895,187.31087094572905L275.86206896551727,223.95263827041168L248.27586206896552,235.37190082553366L220.68965517241378,243.22921730572193L193.10344827586206,271.8536009433504L165.51724137931035,249.4125044912476L137.93103448275863,261.5820543094229L110.34482758620689,270.4269972446842L82.75862068965517,307.6756198343667L55.172413793103445,350.55177442875845L27.586206896551722,316.363636363531L0,333.34022038538524Z" title="cocaine" style="fill: rgb(105, 191, 139);"></path><path class="layer" d="M0,323.35399449004785L27.586206896551722,299.387052341479L55.172413793103445,333.63393291196934L82.75862068965517,296.8904958674109L110.34482758620689,261.43939393889485L137.93103448275863,253.02243211343307L165.51724137931035,220.4958677682128L193.10344827586206,262.4380165277635L220.68965517241378,208.86485172466985L248.27586206896552,217.39669421392279L275.86206896551727,211.50826446238028L303.44827586206895,166.57024793235536L331.0344827586207,245.6611570238856L358.62068965517244,278.76033057831467L386.2068965517241,227.76244065409298L413.7931034482759,235.0021748585641L441.37931034482756,242.57068290538984L468.96551724137925,243.94178943572444L496.55172413793105,332.4952320405675L524.1379310344828,305.8780991731175L551.7241379310345,236.93034238409462L579.3103448275862,211.50826446234436L606.8965517241379,248.35743801610994L634.4827586206897,76.0950413223485L662.0689655172414,259.6418732780339L689.655172413793,304.5489465714901L717.2413793103449,239.75501770826014L744.8275862068965,239.04171586000552L772.4137931034483,256.446280991902L800,302.88223140454863L800,312.6188016525008L772.4137931034483,264.3378351140665L744.8275862068965,246.17473435666227L717.2413793103449,245.31877213566145L689.655172413793,310.11872890185043L662.0689655172414,297.98898071603895L634.4827586206897,98.8636363637595L606.8965517241379,258.2438016524861L579.3103448275862,220.04648760285102L551.7241379310345,273.39433293901465L524.1379310344828,313.3677685946206L496.55172413793105,348.6268277176399L468.96551724137925,259.18163851947486L441.37931034482756,252.97738146997733L413.7931034482759,242.25532840359597L386.2068965517241,238.8535255846549L358.62068965517244,286.5082644626288L331.0344827586207,257.64462809828694L303.44827586206895,173.4837889368073L275.86206896551727,221.1872218686309L248.27586206896552,224.83471074287075L220.68965517241378,221.02455031487779L193.10344827586206,266.71782762575754L165.51724137931035,229.09270571290176L137.93103448275863,254.7343565526325L110.34482758620689,269.4283746551504L82.75862068965517,306.776859503787L55.172413793103445,343.15021876516766L27.586206896551722,312.36914600540325L0,329.3457300272575Z" title="marijuana" style="fill: rgb(105, 191, 191);"></path><path class="layer" d="M0,321.35674931098396L27.586206896551722,297.38980716241514L55.172413793103445,330.46183762757585L82.75862068965517,295.99173553683124L110.34482758620689,257.4449035807671L137.93103448275863,251.3105076742337L165.51724137931035,218.15127560147778L193.10344827586206,261.5820543081647L220.68965517241378,206.2214389876782L248.27586206896552,214.2975206602079L275.86206896551727,210.81691036193507L303.44827586206895,161.5003178624239L331.0344827586207,245.6611570238856L358.62068965517244,277.21074380145365L386.2068965517241,225.46773342708263L413.7931034482759,230.27185732919475L441.37931034482756,239.7324923877718L468.96551724137925,240.42490118563097L496.55172413793105,329.7298156387867L524.1379310344828,303.8808539940536L551.7241379310345,233.84887839352814L579.3103448275862,207.46384297473583L606.8965517241379,243.86363636321175L634.4827586206897,74.89669421491021L662.0689655172414,258.8429752064083L689.655172413793,298.72599231702736L717.2413793103449,238.47107437886012L744.8275862068965,238.47107438027297L772.4137931034483,254.25418262463808L800,299.88636363594384L800,302.88223140454863L772.4137931034483,256.446280991902L744.8275862068965,239.04171586000552L717.2413793103449,239.75501770826014L689.655172413793,304.5489465714901L662.0689655172414,259.6418732780339L634.4827586206897,76.0950413223485L606.8965517241379,248.35743801610994L579.3103448275862,211.50826446234436L551.7241379310345,236.93034238409462L524.1379310344828,305.8780991731175L496.55172413793105,332.4952320405675L468.96551724137925,243.94178943572444L441.37931034482756,242.57068290538984L413.7931034482759,235.0021748585641L386.2068965517241,227.76244065409298L358.62068965517244,278.76033057831467L331.0344827586207,245.6611570238856L303.44827586206895,166.57024793235536L275.86206896551727,211.50826446238028L248.27586206896552,217.39669421392279L220.68965517241378,208.86485172466985L193.10344827586206,262.4380165277635L165.51724137931035,220.4958677682128L137.93103448275863,253.02243211343307L110.34482758620689,261.43939393889485L82.75862068965517,296.8904958674109L55.172413793103445,333.63393291196934L27.586206896551722,299.387052341479L0,323.35399449004785Z" title="mdma" style="fill: rgb(105, 139, 191);"></path><path class="layer" d="M0,310.3719008261056L27.586206896551722,297.38980716241514L55.172413793103445,330.46183762757585L82.75862068965517,294.19421487567195L110.34482758620689,257.4449035807671L137.93103448275863,250.45454545463485L165.51724137931035,218.15127560147778L193.10344827586206,260.72609208856585L220.68965517241378,205.16407389287804L248.27586206896552,214.2975206602079L275.86206896551727,210.81691036193507L303.44827586206895,161.5003178624239L331.0344827586207,245.06198347016647L358.62068965517244,277.21074380145365L386.2068965517241,225.46773342708263L413.7931034482759,229.9565028272374L441.37931034482756,238.4710743799423L468.96551724137925,239.2526051022652L496.55172413793105,323.2771773679649L524.1379310344828,303.38154269928674L551.7241379310345,233.3353010617688L579.3103448275862,207.46384297473583L606.8965517241379,238.4710743797338L634.4827586206897,74.29752066119102L662.0689655172414,258.04407713478275L689.655172413793,298.72599231702736L717.2413793103449,236.75914993966074L744.8275862068965,237.6151121606742L772.4137931034483,252.93892360427787L800,299.13739669379356L800,299.88636363594384L772.4137931034483,254.25418262463808L744.8275862068965,238.47107438027297L717.2413793103449,238.47107437886012L689.655172413793,298.72599231702736L662.0689655172414,258.8429752064083L634.4827586206897,74.89669421491021L606.8965517241379,243.86363636321175L579.3103448275862,207.46384297473583L551.7241379310345,233.84887839352814L524.1379310344828,303.8808539940536L496.55172413793105,329.7298156387867L468.96551724137925,240.42490118563097L441.37931034482756,239.7324923877718L413.7931034482759,230.27185732919475L386.2068965517241,225.46773342708263L358.62068965517244,277.21074380145365L331.0344827586207,245.6611570238856L303.44827586206895,161.5003178624239L275.86206896551727,210.81691036193507L248.27586206896552,214.2975206602079L220.68965517241378,206.2214389876782L193.10344827586206,261.5820543081647L165.51724137931035,218.15127560147778L137.93103448275863,251.3105076742337L110.34482758620689,257.4449035807671L82.75862068965517,295.99173553683124L55.172413793103445,330.46183762757585L27.586206896551722,297.38980716241514L0,321.35674931098396Z" title="methamphetamine" style="fill: rgb(122, 105, 191);"></path><path class="layer" d="M0,272.424242423694L27.586206896551722,264.43526170788795L55.172413793103445,301.9129800679447L82.75862068965517,266.33264462770285L110.34482758620689,231.4807162528108L137.93103448275863,217.07201889029926L165.51724137931035,173.60402443353098L193.10344827586206,206.80047225378695L220.68965517241378,173.44312104894334L248.27586206896552,166.57024793293067L275.86206896551727,187.31087094681652L303.44827586206895,122.78448823738535L331.0344827586207,206.71487603216144L358.62068965517244,235.37190082613216L386.2068965517241,202.1382099523816L413.7931034482759,188.0143540669137L441.37931034482756,208.19704219192062L468.96551724137925,204.86525332358127L496.55172413793105,288.24856961200334L524.1379310344828,273.4228650132386L551.7241379310345,206.62927981033636L579.3103448275862,163.87396694162294L606.8965517241379,172.8615702474196L634.4827586206897,32.954545454527306L662.0689655172414,216.50137741005256L689.655172413793,259.4843440804385L717.2413793103449,186.68536009297765L744.8275862068965,189.11058638340836L772.4137931034483,183.23019552513404L800,264.68491735484713L800,299.13739669379356L772.4137931034483,252.93892360427787L744.8275862068965,237.6151121606742L717.2413793103449,236.75914993966074L689.655172413793,298.72599231702736L662.0689655172414,258.04407713478275L634.4827586206897,74.29752066119102L606.8965517241379,238.4710743797338L579.3103448275862,207.46384297473583L551.7241379310345,233.3353010617688L524.1379310344828,303.38154269928674L496.55172413793105,323.2771773679649L468.96551724137925,239.2526051022652L441.37931034482756,238.4710743799423L413.7931034482759,229.9565028272374L386.2068965517241,225.46773342708263L358.62068965517244,277.21074380145365L331.0344827586207,245.06198347016647L303.44827586206895,161.5003178624239L275.86206896551727,210.81691036193507L248.27586206896552,214.2975206602079L220.68965517241378,205.16407389287804L193.10344827586206,260.72609208856585L165.51724137931035,218.15127560147778L137.93103448275863,250.45454545463485L110.34482758620689,257.4449035807671L82.75862068965517,294.19421487567195L55.172413793103445,330.46183762757585L27.586206896551722,297.38980716241514L0,310.3719008261056Z" title="intoxicated" style="fill: rgb(174, 105, 191);"></path><path class="layer" d="M0,253.45041322248818L27.586206896551722,240.46831955915724L55.172413793103445,276.53621779279695L82.75862068965517,248.35743801610988L110.34482758620689,183.54683195516958L137.93103448275863,189.6812278631014L165.51724137931035,123.58605821000697L193.10344827586206,182.8335301048765L220.68965517241378,120.57486630893226L248.27586206896552,143.63636363548022L275.86206896551727,166.57024793337087L303.44827586206895,85.91226954679541L331.0344827586207,169.5661157016558L358.62068965517244,200.04132231367845L386.2068965517241,172.689467205737L413.7931034482759,156.16354936920408L441.37931034482756,158.37103088261796L468.96551724137925,182.20086237848238L496.55172413793105,262.43801652864425L524.1379310344828,244.46280991662348L551.7241379310345,187.11334120354104L579.3103448275862,125.67665289198789L606.8965517241379,134.21487603249471L634.4827586206897,0L662.0689655172414,193.3333333328684L689.655172413793,241.00279362071268L717.2413793103449,164.00236127349234L744.8275862068965,162.29043683601492L772.4137931034483,165.25498891354107L800,242.9648760325656L800,264.68491735484713L772.4137931034483,183.23019552513404L744.8275862068965,189.11058638340836L717.2413793103449,186.68536009297765L689.655172413793,259.4843440804385L662.0689655172414,216.50137741005256L634.4827586206897,32.954545454527306L606.8965517241379,172.8615702474196L579.3103448275862,163.87396694162294L551.7241379310345,206.62927981033636L524.1379310344828,273.4228650132386L496.55172413793105,288.24856961200334L468.96551724137925,204.86525332358127L441.37931034482756,208.19704219192062L413.7931034482759,188.0143540669137L386.2068965517241,202.1382099523816L358.62068965517244,235.37190082613216L331.0344827586207,206.71487603216144L303.44827586206895,122.78448823738535L275.86206896551727,187.31087094681652L248.27586206896552,166.57024793293067L220.68965517241378,173.44312104894334L193.10344827586206,206.80047225378695L165.51724137931035,173.60402443353098L137.93103448275863,217.07201889029926L110.34482758620689,231.4807162528108L82.75862068965517,266.33264462770285L55.172413793103445,301.9129800679447L27.586206896551722,264.43526170788795L0,272.424242423694Z" title="other" style="fill: rgb(191, 105, 156);"></path><text x="634.4827586206897" y="429.6074380166385" style="font-size: 11px; font-family: Arial, Helvetica;">alcohol</text><text x="110.34482758620689" y="366.7940771347368" style="font-size: 11px; font-family: Arial, Helvetica;">tobacco</text><text x="800" y="374.7830578509205" style="font-size: 11px; font-family: Arial, Helvetica;">pharmaceutical</text><text x="303.44827586206895" y="238.93197711235734" style="font-size: 11px; font-family: Arial, Helvetica;">gambling</text><text x="220.68965517241378" y="232.12688381029983" style="font-size: 11px; font-family: Arial, Helvetica;">cocaine</text><text x="662.0689655172414" y="278.8154269970364" style="font-size: 11px; font-family: Arial, Helvetica;">marijuana</text><text x="689.655172413793" y="301.6374694442587" style="font-size: 11px; font-family: Arial, Helvetica;">mdma</text><text x="0" y="315.8643250685448" style="font-size: 11px; font-family: Arial, Helvetica;">methamphetamine</text><text x="772.4137931034483" y="218.084559564706" style="font-size: 11px; font-family: Arial, Helvetica;">intoxicated</text><text x="220.68965517241378" y="147.00899367893777" style="font-size: 11px; font-family: Arial, Helvetica;">other</text></g></svg>